<svg width="8" height="8" viewBox="0 0 8 8" fill="none" xmlns="http://www.w3.org/2000/svg">
<path d="M4 1.75C4 1.6837 3.97366 1.62011 3.92678 1.57322C3.87989 1.52634 3.8163 1.5 3.75 1.5C3.6837 1.5 3.62011 1.52634 3.57322 1.57322C3.52634 1.62011 3.5 1.6837 3.5 1.75V4.5C3.50001 4.54407 3.51168 4.58735 3.5338 4.62545C3.55593 4.66356 3.58774 4.69514 3.626 4.717L5.376 5.717C5.43343 5.74804 5.50072 5.75538 5.56349 5.73746C5.62626 5.71954 5.67954 5.67778 5.71192 5.6211C5.74431 5.56442 5.75325 5.49732 5.73682 5.43414C5.72039 5.37097 5.6799 5.31672 5.624 5.283L4 4.355V1.75Z" fill="#AAAAAA"/>
<path d="M4 8C5.06087 8 6.07828 7.57857 6.82843 6.82843C7.57857 6.07828 8 5.06087 8 4C8 2.93913 7.57857 1.92172 6.82843 1.17157C6.07828 0.421427 5.06087 0 4 0C2.93913 0 1.92172 0.421427 1.17157 1.17157C0.421427 1.92172 0 2.93913 0 4C0 5.06087 0.421427 6.07828 1.17157 6.82843C1.92172 7.57857 2.93913 8 4 8ZM7.5 4C7.5 4.92826 7.13125 5.8185 6.47487 6.47487C5.8185 7.13125 4.92826 7.5 4 7.5C3.07174 7.5 2.1815 7.13125 1.52513 6.47487C0.868749 5.8185 0.5 4.92826 0.5 4C0.5 3.07174 0.868749 2.1815 1.52513 1.52513C2.1815 0.868749 3.07174 0.5 4 0.5C4.92826 0.5 5.8185 0.868749 6.47487 1.52513C7.13125 2.1815 7.5 3.07174 7.5 4Z" fill="#AAAAAA"/>
</svg>
