<svg width="10" height="7" viewBox="0 0 10 7" fill="none" xmlns="http://www.w3.org/2000/svg">
<path d="M9.49993 0.00307101C9.45733 -0.00102367 9.4144 -0.00102367 9.3718 0.00307101H0.621802C0.565722 0.00387714 0.510013 0.0117218 0.456177 0.0263937L4.9718 4.22156L9.49993 0.00307101Z" fill="#C56446"/>
<path d="M9.9625 0.408447L5.4125 4.63568C5.2954 4.74428 5.13699 4.80523 4.97188 4.80523C4.80676 4.80523 4.64835 4.74428 4.53125 4.63568L0.021875 0.440516C0.00801232 0.488048 0.000662089 0.537027 0 0.586283V6.41695C0 6.57159 0.065848 6.71989 0.183058 6.82924C0.300269 6.93859 0.45924 7.00002 0.625 7.00002H9.375C9.54076 7.00002 9.69973 6.93859 9.81694 6.82924C9.93415 6.71989 10 6.57159 10 6.41695V0.586283C9.99751 0.525543 9.98486 0.46554 9.9625 0.408447ZM1.05313 6.41695H0.61875V6.00006L2.89062 3.8981L3.33125 4.30916L1.05313 6.41695ZM9.36875 6.41695H8.93125L6.65312 4.30916L7.09375 3.8981L9.36562 6.00006L9.36875 6.41695Z" fill="#C56446"/>
</svg>
