<svg width="10" height="10" viewBox="0 0 10 10" fill="none" xmlns="http://www.w3.org/2000/svg">
<path d="M9.71465 7.06745L7.52715 6.12995C7.4337 6.09012 7.32984 6.08173 7.23121 6.10604C7.13258 6.13034 7.04452 6.18603 6.98027 6.26472L6.01152 7.44831C4.49116 6.73147 3.26762 5.50793 2.55078 3.98757L3.73438 3.01882C3.81322 2.95469 3.86902 2.86662 3.89334 2.76795C3.91766 2.66927 3.90916 2.56536 3.86914 2.47194L2.93164 0.284442C2.88772 0.183741 2.81003 0.101521 2.71198 0.0519613C2.61393 0.0024014 2.50166 -0.0113927 2.39453 0.0129577L0.363281 0.481708C0.259994 0.505559 0.167841 0.563715 0.101862 0.646685C0.0358838 0.729655 -2.37932e-05 0.832538 1.18285e-08 0.938544C1.18285e-08 5.94831 4.06055 10.001 9.0625 10.001C9.16854 10.0011 9.27147 9.96522 9.35448 9.89924C9.43749 9.83326 9.49567 9.74108 9.51953 9.63776L9.98828 7.60651C10.0125 7.49886 9.99839 7.38614 9.94845 7.28775C9.8985 7.18936 9.81583 7.11146 9.71465 7.06745Z" fill="#C56446"/>
</svg>
