<svg width="8" height="10" viewBox="0 0 8 10" fill="none" xmlns="http://www.w3.org/2000/svg">
<path d="M4 10C4 10 8 6.44625 8 3.75C8 2.75544 7.57857 1.80161 6.82843 1.09835C6.07828 0.395088 5.06087 0 4 0C2.93913 0 1.92172 0.395088 1.17157 1.09835C0.421427 1.80161 1.58081e-08 2.75544 0 3.75C0 6.44625 4 10 4 10ZM4 5.625C3.46957 5.625 2.96086 5.42746 2.58579 5.07583C2.21071 4.72419 2 4.24728 2 3.75C2 3.25272 2.21071 2.77581 2.58579 2.42417C2.96086 2.07254 3.46957 1.875 4 1.875C4.53043 1.875 5.03914 2.07254 5.41421 2.42417C5.78929 2.77581 6 3.25272 6 3.75C6 4.24728 5.78929 4.72419 5.41421 5.07583C5.03914 5.42746 4.53043 5.625 4 5.625Z" fill="#C56446"/>
</svg>
