<svg width="59" height="59" viewBox="0 0 59 59" fill="none" xmlns="http://www.w3.org/2000/svg">
<g clip-path="url(#clip0)">
<path d="M55.9745 3.46094H37.5793C35.9092 3.46094 34.5537 4.81637 34.5537 6.48647V24.8817C34.5537 26.5518 35.9092 27.9072 37.5793 27.9072H46.3836C46.2686 32.7239 45.1492 36.5784 43.0313 39.4768C41.3612 41.7641 38.8319 43.6581 35.4493 45.1527C33.8942 45.8365 33.2225 47.676 33.9486 49.213L36.127 53.8119C36.8289 55.2882 38.5656 55.9358 40.0663 55.2883C44.0721 53.5576 47.4547 51.3672 50.2139 48.7047C53.5783 45.4553 55.8837 41.7883 57.1303 37.6978C58.3768 33.6073 59 28.0282 59 20.9485V6.48647C59 4.81643 57.6445 3.46094 55.9745 3.46094Z" fill="#F8EFDA"/>
<path d="M6.41637 55.2761C10.3738 53.5516 13.7381 51.3612 16.5156 48.7047C19.9102 45.4553 22.2278 41.8004 23.4743 37.7402C24.7208 33.6799 25.344 28.0827 25.344 20.9485V6.48647C25.344 4.81637 23.9886 3.46094 22.3185 3.46094H3.92327C2.25318 3.46094 0.897741 4.81637 0.897741 6.48647V24.8817C0.897741 26.5518 2.25318 27.9072 3.92327 27.9072H12.7276C12.6126 32.7239 11.4931 36.5784 9.37528 39.4768C7.70518 41.7641 5.17584 43.6581 1.7933 45.1527C0.238176 45.8365 -0.433492 47.676 0.292635 49.213L2.46497 53.7998C3.16695 55.2761 4.91571 55.9297 6.41637 55.2761Z" fill="#F8EFDA"/>
</g>
<defs>
<clipPath id="clip0">
<rect width="59" height="59" fill="white"/>
</clipPath>
</defs>
</svg>
