<svg width="255" height="82" viewBox="0 0 255 82" fill="none" xmlns="http://www.w3.org/2000/svg">
<path d="M37.5376 73.0605C40.4057 77.3175 43.3491 80.0118 43.5026 80.1509L45.2716 81.7392L47.0408 80.1509C47.1942 80.011 50.141 77.3133 53.0112 73.0516C49.4172 70.8245 46.7327 68.5004 45.2752 67.081C43.8162 68.5046 41.1338 70.8321 37.5376 73.0605Z" fill="#C56446"/>
<path d="M45.2716 0L49.0225 3.75798L45.2716 7.51596L41.5205 3.75798L45.2716 0Z" fill="#C56446"/>
<path d="M61.1876 10.6303L64.9385 14.3883L61.1876 18.1462L57.4365 14.3883L61.1876 10.6303Z" fill="#C56446"/>
<path d="M25.6045 14.3883L29.3556 10.6303L33.1065 14.3883L29.3556 18.1462L25.6045 14.3883Z" fill="#C56446"/>
<path d="M21.398 72.8557C32.9619 72.8557 42.4817 62.3784 42.6191 62.2254C42.5232 62.1188 32.9875 51.595 21.398 51.595C9.83413 51.595 0.137528 62.0718 0 62.2254C0.0960496 62.3313 9.80856 72.8557 21.398 72.8557Z" fill="#C56446"/>
<path d="M69.1454 51.595C57.5815 51.595 48.0617 62.0718 47.9243 62.2254C48.0202 62.3313 57.556 72.8557 69.1454 72.8557C80.7093 72.8557 90.4064 62.3784 90.5434 62.2254C90.448 62.1188 80.7349 51.595 69.1454 51.595Z" fill="#C56446"/>
<path d="M45.2717 17.0465C45.1654 17.1422 34.6611 26.6956 34.6611 38.3072C34.6611 49.8926 45.119 59.4301 45.2717 59.5678C45.3781 59.4717 55.8823 49.9182 55.8823 38.3072C55.8823 26.7211 45.4244 17.1836 45.2717 17.0465Z" fill="#C56446"/>
<path d="M69.1457 46.2799C70.7629 46.2799 72.3295 46.4702 73.8535 46.7574C77.5527 39.0753 77.1671 30.4389 77.1589 30.2783C77.047 30.2728 68.401 29.8734 60.7118 33.5899C60.9971 35.116 61.1878 36.6849 61.1878 38.3072C61.1878 41.8533 60.4024 45.1933 59.2397 48.2246C62.264 47.0634 65.5998 46.2799 69.1457 46.2799Z" fill="#C56446"/>
<path d="M13.3846 30.2783C13.3791 30.3905 12.9804 39.0525 16.6893 46.7567C18.2125 46.4709 19.7793 46.2799 21.3978 46.2799C24.9374 46.2799 28.2719 47.0668 31.2969 48.2316C30.1377 45.2016 29.3557 41.8596 29.3557 38.3071C29.3557 36.6863 29.5464 35.1173 29.8324 33.5899C22.1646 29.8839 13.5441 30.27 13.3846 30.2783Z" fill="#C56446"/>
<path d="M104.428 29.0907V28.631H113.146V29.0907C111.922 29.0907 111.004 29.5504 110.393 30.4698V38.2845C112.993 38.2845 114.981 36.3691 116.357 32.5384C116.969 29.7803 118.346 28.4778 120.487 28.631C122.322 28.4778 123.393 29.0141 123.699 30.24C123.699 31.9255 122.705 32.3852 120.716 31.619C119.34 29.7803 118.193 30.7763 117.275 34.607C116.357 36.599 115.44 37.8248 114.522 38.2845C116.357 39.5104 118.499 41.962 120.946 45.6395C122.169 47.1718 123.24 47.938 124.158 47.938V48.3977H119.11C114.828 42.1153 111.922 39.2039 110.393 39.6636V46.5589C111.004 47.3251 111.922 47.7848 113.146 47.938V48.3977H104.428V47.938C105.498 47.938 106.416 47.4783 107.181 46.5589V30.4698C106.416 29.5504 105.498 29.0907 104.428 29.0907ZM135.105 28.1714H136.253L144.512 46.5589C144.97 47.3251 145.735 47.7848 146.806 47.938V48.3977H138.547V47.938C139.77 47.7848 140.459 47.4783 140.612 47.0186L138.547 41.962H131.205L128.911 47.0186C129.064 47.3251 129.676 47.6315 130.747 47.938V48.3977H125.241V47.938C126.005 47.6315 126.541 47.2485 126.846 46.7888L135.105 28.1714ZM134.876 33.4578L131.664 40.583H137.858L134.876 33.4578ZM146.971 29.0907V28.631H168.077V29.0907C166.854 29.244 165.936 29.7037 165.324 30.4698V46.5589C165.936 47.3251 166.854 47.7848 168.077 47.938V48.3977H159.36V47.938C160.43 47.938 161.348 47.4783 162.113 46.5589V30.4698H152.936V46.5589C153.548 47.3251 154.465 47.7848 155.689 47.938V48.3977H146.971V47.938C147.889 47.938 148.806 47.4783 149.724 46.5589V30.4698C148.959 29.5504 148.042 29.0907 146.971 29.0907ZM168.701 29.0907V28.631H177.419V29.0907C176.196 29.0907 175.278 29.5504 174.666 30.4698V43.8008L184.302 30.4698C183.69 29.3972 182.772 28.9375 181.549 29.0907V28.631H190.267V29.0907C188.89 29.0907 187.973 29.5504 187.514 30.4698V46.5589C188.125 47.4783 189.043 47.938 190.267 47.938V48.3977H181.549V47.938C182.619 47.938 183.537 47.4783 184.302 46.5589V33.6876L174.666 46.5589C175.278 47.3251 176.196 47.7848 177.419 47.938V48.3977H168.701V47.938C169.925 47.7848 170.843 47.3251 171.454 46.5589V30.4698C170.69 29.7037 169.772 29.244 168.701 29.0907ZM193.644 28.631H210.162V33.2279H209.703C209.244 31.5424 208.632 30.623 207.868 30.4698H203.738V46.5589C204.197 47.3251 205.115 47.7848 206.491 47.938V48.3977H197.773V47.938C198.844 47.938 199.762 47.4783 200.526 46.5589V30.4698H195.938C195.173 30.7763 194.561 31.6956 194.103 33.2279H193.644V28.631ZM222.028 28.1714H223.174L231.433 46.5589C231.892 47.3251 232.657 47.7848 233.728 47.938V48.3977H225.469V47.938C226.692 47.7848 227.381 47.4783 227.534 47.0186L225.469 41.962H218.127L215.833 47.0186C215.986 47.3251 216.598 47.6315 217.668 47.938V48.3977H212.162V47.938C212.927 47.6315 213.462 47.2485 213.768 46.7888L222.028 28.1714ZM221.798 33.4578L218.586 40.583H224.781L221.798 33.4578ZM238.022 29.0907V28.631H254.082V29.0907C252.552 29.244 251.634 29.7037 251.329 30.4698V46.5589C251.787 47.3251 252.705 47.7848 254.082 47.938V48.3977H245.364V47.938C246.587 47.938 247.505 47.4783 248.117 46.5589V30.4698H242.152V42.4217C241.54 47.0186 239.322 49.1644 235.498 48.8574C234.58 48.7041 234.046 48.0912 233.893 47.0186C234.199 45.1799 235.116 44.7202 236.646 45.6395C238.634 47.4783 240.011 46.0992 240.775 41.5023V30.4698C240.316 29.7037 239.399 29.244 238.022 29.0907Z" fill="#C56446"/>
<path d="M118.782 65.5207C119.136 64.9948 119.502 64.6049 119.878 64.3537C120.255 64.0901 120.666 63.9589 121.112 63.9589C121.523 63.9589 121.843 64.0447 122.071 64.2164C122.299 64.3769 122.414 64.605 122.414 64.9028C122.414 65.2914 122.242 65.6469 121.9 65.9669C121.557 66.2868 121.066 66.6251 120.427 66.9794C119.947 67.243 119.576 67.5114 119.313 67.786C119.062 68.0496 118.936 68.4038 118.936 68.85C118.936 69.1479 119.016 69.3759 119.176 69.5365C119.347 69.6848 119.564 69.7596 119.827 69.7596C120.409 69.7596 121.089 69.4102 121.865 68.7127C122.653 68.0152 123.556 66.9169 124.572 65.4177L124.692 65.5035C123.664 67.0713 122.711 68.2383 121.831 69.0045C120.952 69.7596 120.17 70.1372 119.484 70.1372C119.028 70.1372 118.668 70.0232 118.405 69.7939C118.143 69.5537 118.011 69.2509 118.011 68.8843C118.011 68.6208 118.063 68.3867 118.165 68.1807C118.28 67.9748 118.422 67.7921 118.594 67.6315C118.776 67.4599 118.982 67.2993 119.21 67.151C119.439 67.0027 119.679 66.8531 119.93 66.7048C120.124 66.5908 120.312 66.4645 120.495 66.3272C120.689 66.19 120.861 66.0465 121.009 65.8982C121.169 65.7376 121.294 65.5721 121.386 65.4005C121.477 65.2289 121.523 65.0512 121.523 64.8685C121.523 64.6626 121.46 64.4971 121.334 64.3708C121.22 64.2335 121.077 64.1649 120.906 64.1649C120.541 64.1649 120.204 64.2911 119.896 64.5424C119.587 64.7827 119.267 65.1431 118.936 65.6236L118.782 65.5207ZM135.314 65.6579C135.04 65.9669 134.732 66.2132 134.389 66.3959C134.046 66.5785 133.71 66.6705 133.378 66.6705C133.059 66.6705 132.785 66.6018 132.556 66.4645C132.328 66.3162 132.151 66.1446 132.025 65.9497H131.991C131.877 66.3849 131.665 66.8482 131.357 67.3398C131.049 67.8314 130.678 68.2837 130.244 68.6956C129.821 69.1074 129.353 69.4507 128.839 69.7253C128.325 69.9999 127.8 70.1372 127.263 70.1372C126.772 70.1372 126.401 69.9937 126.15 69.7081C125.898 69.4225 125.773 69.0388 125.773 68.5583C125.773 68.307 125.836 68.0152 125.961 67.683C126.087 67.3508 126.258 67.0198 126.475 66.6876C126.704 66.3444 126.966 66.0122 127.263 65.6923C127.571 65.3601 127.903 65.0683 128.257 64.817C128.611 64.5535 128.982 64.3475 129.37 64.1992C129.77 64.0386 130.17 63.9589 130.569 63.9589C131.037 63.9589 131.397 64.0962 131.648 64.3708C131.911 64.6454 132.054 64.9997 132.077 65.4348C132.099 65.6984 132.219 65.9436 132.436 66.1728C132.665 66.3898 132.973 66.4989 133.361 66.4989C133.704 66.4989 134.024 66.4131 134.321 66.2414C134.629 66.0698 134.914 65.8467 135.177 65.5721L135.314 65.6579ZM126.698 68.9702C126.698 69.268 126.755 69.5022 126.869 69.6738C126.983 69.8454 127.155 69.9312 127.383 69.9312C127.691 69.9312 127.994 69.8515 128.291 69.691C128.599 69.5193 128.89 69.3024 129.164 69.0388C129.45 68.7642 129.713 68.4553 129.952 68.1121C130.192 67.7688 130.398 67.4146 130.569 67.048C130.752 66.6815 130.895 66.3273 130.997 65.984C131.1 65.6297 131.152 65.3086 131.152 65.023C131.152 64.7827 131.089 64.5829 130.963 64.4223C130.849 64.2507 130.666 64.1649 130.415 64.1649C130.175 64.1649 129.918 64.2446 129.644 64.4051C129.37 64.5535 129.09 64.7545 128.805 65.0058C128.531 65.2571 128.268 65.5488 128.017 65.881C127.766 66.2132 127.537 66.5565 127.332 66.9108C127.138 67.265 126.983 67.6205 126.869 67.9748C126.755 68.329 126.698 68.6613 126.698 68.9702ZM144.056 65.6923C143.794 66.1152 143.445 66.5736 143.011 67.0652C142.589 67.5457 142.126 67.9981 141.624 68.421C141.007 68.9358 140.39 69.3538 139.774 69.6738C139.157 69.9827 138.552 70.1372 137.958 70.1372C137.535 70.1372 137.181 70.0281 136.896 69.8111C136.61 69.5819 136.468 69.2509 136.468 68.8157C136.468 68.2665 136.622 67.7063 136.93 67.1339C137.25 66.5614 137.644 66.0416 138.112 65.5721C138.592 65.0916 139.111 64.703 139.671 64.4051C140.242 64.1073 140.779 63.9589 141.281 63.9589C141.612 63.9589 141.898 64.0214 142.138 64.1477C142.389 64.2617 142.514 64.4677 142.514 64.7655C142.514 64.9028 142.475 65.0168 142.394 65.1088C142.326 65.2007 142.235 65.2743 142.12 65.3319C142.018 65.3895 141.898 65.4348 141.761 65.4692C141.635 65.4925 141.521 65.5096 141.418 65.5207C141.464 65.4066 141.504 65.2914 141.538 65.1774C141.572 65.0512 141.589 64.9261 141.589 64.7999C141.589 64.3769 141.39 64.1649 140.99 64.1649C140.693 64.1649 140.339 64.3132 139.928 64.6111C139.528 64.8967 139.146 65.2632 138.78 65.7094C138.426 66.1556 138.124 66.6472 137.872 67.1853C137.621 67.7235 137.495 68.2432 137.495 68.7471C137.495 69.056 137.564 69.3195 137.701 69.5365C137.849 69.7535 138.072 69.8626 138.369 69.8626C138.769 69.8626 139.225 69.7314 139.739 69.4678C140.265 69.2043 140.773 68.8782 141.264 68.4896C141.778 68.0888 142.269 67.6315 142.737 67.1167C143.217 66.5908 143.616 66.0809 143.936 65.5893L144.056 65.6923ZM144.056 69.9999C144.308 69.5769 144.599 69.1136 144.93 68.6098C145.25 68.1059 145.575 67.5972 145.906 67.0824C146.249 66.5565 146.58 66.0416 146.9 65.5378C147.231 65.023 147.528 64.5424 147.791 64.0962H148.835L146.574 67.2883L146.609 67.3226C146.826 67.0591 147.088 66.7391 147.397 66.3616C147.705 65.973 148.042 65.6003 148.407 65.2461C148.784 64.8918 149.184 64.5878 149.606 64.3365C150.029 64.0852 150.463 63.9589 150.908 63.9589C151.182 63.9589 151.405 64.0337 151.576 64.182C151.759 64.3193 151.85 64.5253 151.85 64.7999C151.85 64.9604 151.793 65.1541 151.679 65.3834C151.565 65.6126 151.428 65.8467 151.268 66.087C151.119 66.3162 150.965 66.5393 150.805 66.7563C150.646 66.9733 150.52 67.151 150.429 67.2883L150.463 67.3226C150.703 66.9794 150.988 66.6129 151.319 66.2243C151.662 65.8357 152.022 65.4753 152.398 65.1431C152.787 64.7999 153.181 64.5191 153.58 64.3022C153.992 64.0729 154.386 63.9589 154.762 63.9589C155.094 63.9589 155.339 64.0386 155.499 64.1992C155.67 64.3598 155.756 64.5829 155.756 64.8685C155.756 65.0634 155.687 65.2914 155.55 65.555C155.425 65.8185 155.259 66.098 155.054 66.3959C154.86 66.6815 154.648 66.9733 154.42 67.2711C154.191 67.569 153.974 67.8546 153.769 68.1292C153.575 68.4038 153.409 68.6612 153.272 68.9015C153.147 69.1307 153.084 69.3244 153.084 69.485C153.084 69.6223 153.124 69.7314 153.204 69.8111C153.295 69.8908 153.403 69.9312 153.529 69.9312C153.803 69.9312 154.123 69.8221 154.488 69.6051C154.865 69.3882 155.265 69.0842 155.687 68.6956C156.121 68.307 156.573 67.8436 157.041 67.3055C157.509 66.7563 157.983 66.1556 158.462 65.5035L158.599 65.5721C158.131 66.2132 157.663 66.8139 157.195 67.3741C156.727 67.9233 156.27 68.4038 155.824 68.8157C155.391 69.2276 154.968 69.5537 154.557 69.7939C154.157 70.0232 153.786 70.1372 153.443 70.1372C153.089 70.1372 152.827 70.0403 152.655 69.8454C152.484 69.6395 152.398 69.3882 152.398 69.0903C152.398 68.8733 152.461 68.633 152.587 68.3695C152.724 68.0949 152.89 67.8142 153.084 67.5286C153.289 67.243 153.506 66.9561 153.735 66.6705C153.963 66.3849 154.174 66.1103 154.368 65.8467C154.574 65.5832 154.74 65.3429 154.865 65.1259C155.002 64.909 155.071 64.7312 155.071 64.5939C155.071 64.4333 155.025 64.3255 154.934 64.2678C154.854 64.1992 154.751 64.1649 154.625 64.1649C154.397 64.1649 154.129 64.2446 153.82 64.4051C153.512 64.5535 153.186 64.7717 152.844 65.0573C152.513 65.3319 152.17 65.6579 151.816 66.0355C151.462 66.402 151.114 66.8017 150.771 67.2368C150.44 67.6597 150.126 68.1121 149.829 68.5926C149.532 69.0621 149.275 69.5304 149.058 69.9999H147.962C148.282 69.4274 148.624 68.8562 148.99 68.2837C149.366 67.7112 149.715 67.1853 150.035 66.7048C150.354 66.2132 150.623 65.7891 150.84 65.4348C151.057 65.0683 151.165 64.7999 151.165 64.6282C151.165 64.3193 151.005 64.1649 150.685 64.1649C150.4 64.1649 150.08 64.274 149.726 64.4909C149.372 64.6969 149.012 64.9715 148.647 65.3147C148.282 65.6469 147.922 66.0294 147.568 66.4645C147.214 66.8875 146.877 67.3165 146.557 67.7517C146.249 68.1868 145.975 68.6036 145.735 69.0045C145.495 69.3931 145.307 69.7253 145.17 69.9999H144.056ZM164.698 64.6454C164.698 64.4848 164.652 64.3647 164.561 64.285C164.481 64.2053 164.378 64.1649 164.252 64.1649C164.012 64.1649 163.75 64.2617 163.464 64.4566C163.19 64.6393 162.916 64.8746 162.642 65.1603C162.368 65.4348 162.117 65.7327 161.888 66.0527C161.671 66.3726 161.506 66.6595 161.392 66.9108C161.643 66.8654 161.957 66.7796 162.334 66.6533C162.71 66.516 163.07 66.3505 163.413 66.1556C163.767 65.9607 164.07 65.7376 164.321 65.4863C164.572 65.2228 164.698 64.9433 164.698 64.6454ZM167.473 65.555C167.301 65.8406 167.084 66.1556 166.822 66.4989C166.57 66.8421 166.279 67.1853 165.948 67.5286C165.628 67.8608 165.28 68.1868 164.903 68.5068C164.538 68.8157 164.155 69.0964 163.755 69.3477C163.356 69.588 162.95 69.7829 162.539 69.9312C162.14 70.0685 161.746 70.1372 161.357 70.1372C160.878 70.1372 160.507 70.017 160.244 69.7768C159.981 69.5255 159.85 69.17 159.85 68.7127C159.85 68.2089 159.998 67.683 160.295 67.1339C160.604 66.5736 160.992 66.0588 161.46 65.5893C161.928 65.1198 162.442 64.7312 163.002 64.4223C163.561 64.1134 164.098 63.9589 164.612 63.9589C164.897 63.9589 165.12 64.0214 165.28 64.1477C165.44 64.2617 165.52 64.4333 165.52 64.6626C165.52 64.9372 165.371 65.2056 165.074 65.4692C164.778 65.7205 164.412 65.9558 163.978 66.1728C163.556 66.3787 163.099 66.5675 162.608 66.7391C162.117 66.8997 161.683 67.0199 161.306 67.0995C161.18 67.3288 161.078 67.5862 160.998 67.8718C160.918 68.1574 160.878 68.4443 160.878 68.7299C160.878 68.8672 160.889 69.0045 160.912 69.1418C160.946 69.268 160.992 69.3882 161.049 69.5022C161.117 69.6051 161.203 69.691 161.306 69.7596C161.42 69.8282 161.557 69.8626 161.717 69.8626C162.094 69.8626 162.534 69.7424 163.036 69.5022C163.55 69.2509 164.07 68.9187 164.595 68.5068C165.12 68.0949 165.623 67.6254 166.102 67.0995C166.582 66.5736 166.993 66.0294 167.336 65.4692L167.473 65.555ZM170.213 66.3444C169.78 67.0309 169.448 67.5911 169.22 68.0263C169.003 68.4614 168.895 68.8218 168.895 69.1075C168.895 69.371 168.957 69.5769 169.083 69.7253C169.22 69.8626 169.42 69.9312 169.682 69.9312C170.002 69.9312 170.419 69.7657 170.933 69.4335C171.458 69.0903 171.972 68.5816 172.475 67.9061C172.635 67.6892 172.789 67.4661 172.937 67.2368C173.086 66.9966 173.211 66.7673 173.314 66.5504C173.428 66.3211 173.514 66.1041 173.571 65.8982C173.639 65.6923 173.674 65.5035 173.674 65.3319C173.674 65.1492 173.645 65.0119 173.588 64.92C173.531 64.817 173.502 64.6736 173.502 64.4909C173.502 64.296 173.548 64.1587 173.639 64.0791C173.742 63.9994 173.851 63.9589 173.965 63.9589C174.159 63.9589 174.313 64.0558 174.427 64.2507C174.542 64.4456 174.599 64.7251 174.599 65.0916C174.599 65.2399 174.593 65.3723 174.582 65.4863C174.57 65.5893 174.553 65.7033 174.53 65.8296C174.599 65.9215 174.742 66.0416 174.958 66.19C175.187 66.3383 175.484 66.4131 175.849 66.4131C176.215 66.4131 176.529 66.3211 176.791 66.1385C177.065 65.9558 177.294 65.7499 177.477 65.5207L177.596 65.6408C177.402 65.8578 177.163 66.0698 176.877 66.2758C176.592 66.4817 176.243 66.5847 175.832 66.5847C175.558 66.5847 175.301 66.5332 175.061 66.4302C174.833 66.3272 174.633 66.201 174.462 66.0527C174.302 66.5222 174.085 66.9561 173.811 67.357C173.548 67.7455 173.234 68.1121 172.869 68.4553C172.183 69.0964 171.561 69.5365 171.001 69.7768C170.442 70.017 169.934 70.1372 169.477 70.1372C169.077 70.1372 168.74 70.0109 168.466 69.7596C168.204 69.5193 168.072 69.1871 168.072 68.7642C168.072 68.5583 168.129 68.3119 168.244 68.0263C168.358 67.7284 168.495 67.4256 168.655 67.1167C168.826 66.8078 168.997 66.505 169.169 66.2071C169.351 65.9092 169.511 65.6579 169.648 65.452L172.235 61.4533C172.532 61.0071 172.851 60.5952 173.194 60.2177C173.537 59.8291 173.959 59.4454 174.462 59.0678C174.907 58.7246 175.347 58.4733 175.781 58.3127C176.215 58.1411 176.614 58.0553 176.98 58.0553C177.368 58.0553 177.625 58.1129 177.751 58.2269C177.888 58.3409 177.956 58.5125 177.956 58.7418C177.956 59.0507 177.825 59.3939 177.562 59.7715C177.311 60.149 176.946 60.5499 176.466 60.9728C176.101 61.305 175.695 61.636 175.25 61.9682C174.816 62.3004 174.37 62.6203 173.914 62.9292L171.241 64.7484L170.213 66.3444ZM173.742 62.8434C174.142 62.5688 174.547 62.2538 174.958 61.8995C175.381 61.533 175.741 61.1677 176.038 60.8012C176.335 60.4347 176.574 60.0743 176.757 59.72C176.94 59.3535 177.031 59.0225 177.031 58.7246C177.031 58.553 176.991 58.4329 176.911 58.3642C176.843 58.2956 176.74 58.2612 176.603 58.2612C176.386 58.2612 176.146 58.3471 175.883 58.5187C175.621 58.6793 175.358 58.8901 175.096 59.1537C174.844 59.4049 174.599 59.6918 174.359 60.0117C174.131 60.3206 173.931 60.6185 173.759 60.9041L171.464 64.4051L173.742 62.8434ZM188.303 65.6579C188.029 65.9669 187.721 66.2132 187.378 66.3959C187.035 66.5785 186.698 66.6705 186.367 66.6705C186.047 66.6705 185.773 66.6018 185.545 66.4645C185.317 66.3162 185.14 66.1446 185.014 65.9497H184.98C184.866 66.3849 184.654 66.8482 184.346 67.3398C184.038 67.8314 183.666 68.2837 183.233 68.6956C182.81 69.1074 182.342 69.4507 181.828 69.7253C181.314 69.9999 180.789 70.1372 180.252 70.1372C179.761 70.1372 179.39 69.9937 179.139 69.7081C178.887 69.4225 178.762 69.0388 178.762 68.5583C178.762 68.307 178.824 68.0152 178.95 67.683C179.076 67.3508 179.247 67.0198 179.464 66.6876C179.692 66.3444 179.955 66.0122 180.252 65.6923C180.56 65.3601 180.891 65.0683 181.245 64.817C181.599 64.5535 181.971 64.3475 182.359 64.1992C182.759 64.0386 183.158 63.9589 183.558 63.9589C184.026 63.9589 184.386 64.0962 184.637 64.3708C184.9 64.6454 185.043 64.9997 185.065 65.4348C185.088 65.6984 185.208 65.9436 185.425 66.1728C185.653 66.3898 185.962 66.4989 186.35 66.4989C186.693 66.4989 187.013 66.4131 187.309 66.2414C187.618 66.0698 187.903 65.8467 188.166 65.5721L188.303 65.6579ZM179.687 68.9702C179.687 69.268 179.744 69.5022 179.858 69.6738C179.972 69.8454 180.143 69.9312 180.372 69.9312C180.68 69.9312 180.983 69.8515 181.28 69.691C181.588 69.5193 181.879 69.3024 182.153 69.0388C182.439 68.7642 182.702 68.4553 182.941 68.1121C183.181 67.7688 183.387 67.4146 183.558 67.048C183.741 66.6815 183.883 66.3273 183.986 65.984C184.089 65.6297 184.14 65.3086 184.14 65.023C184.14 64.7827 184.078 64.5829 183.952 64.4223C183.838 64.2507 183.655 64.1649 183.404 64.1649C183.164 64.1649 182.907 64.2446 182.633 64.4051C182.359 64.5535 182.079 64.7545 181.794 65.0058C181.52 65.2571 181.257 65.5488 181.006 65.881C180.754 66.2132 180.526 66.5565 180.32 66.9108C180.126 67.265 179.972 67.6205 179.858 67.9748C179.744 68.329 179.687 68.6613 179.687 68.9702ZM196.942 64.0962C196.531 64.6454 196.166 65.137 195.846 65.5721C195.538 66.0073 195.263 66.3959 195.024 66.7391C194.75 67.14 194.515 67.4832 194.321 67.7688C194.139 68.0434 193.99 68.2837 193.876 68.4896C193.773 68.6956 193.699 68.8733 193.653 69.0216C193.608 69.1589 193.585 69.2901 193.585 69.4164C193.585 69.7596 193.745 69.9312 194.064 69.9312C194.293 69.9312 194.613 69.8172 195.024 69.588C195.435 69.3477 195.971 68.8843 196.634 68.1979C197.251 67.569 198.004 66.6595 198.895 65.4692L199.066 65.5207C198.655 66.1041 198.25 66.6362 197.85 67.1167C197.462 67.5862 197.091 68.003 196.737 68.3695C196.154 68.9763 195.623 69.4225 195.144 69.7081C194.675 69.9937 194.276 70.1372 193.944 70.1372C193.613 70.1372 193.356 70.0513 193.174 69.8797C192.991 69.6971 192.9 69.4568 192.9 69.1589C192.9 68.8047 192.991 68.4443 193.174 68.0777L193.139 68.0606C192.637 68.6441 192.134 69.1185 191.632 69.485C191.027 69.9202 190.473 70.1372 189.97 70.1372C189.308 70.1372 188.977 69.8393 188.977 69.2447C188.977 69.1185 189.005 68.9469 189.062 68.7299C189.119 68.5129 189.285 68.1697 189.559 67.7002C189.673 67.5175 189.805 67.3165 189.953 67.0995C190.102 66.8826 190.279 66.63 190.484 66.3444L192.094 64.0962H193.225L191.306 66.6876C191.112 66.9512 190.912 67.2307 190.707 67.5286C190.501 67.8265 190.347 68.0667 190.244 68.2494C190.119 68.4786 190.022 68.6612 189.953 68.7985C189.896 68.9248 189.856 69.0278 189.833 69.1075C189.81 69.1871 189.799 69.2509 189.799 69.2962C189.799 69.3306 189.799 69.3649 189.799 69.3992C189.799 69.5365 189.845 69.6505 189.936 69.7424C190.027 69.8221 190.136 69.8626 190.262 69.8626C190.775 69.8626 191.455 69.4678 192.3 68.6784C192.437 68.5521 192.585 68.4038 192.745 68.2322C192.917 68.0496 193.082 67.8657 193.242 67.683C193.413 67.4881 193.573 67.2993 193.722 67.1167C193.87 66.9218 194.001 66.7453 194.116 66.5847C194.196 66.4707 194.298 66.3162 194.424 66.1213C194.561 65.9154 194.704 65.6984 194.852 65.4692C195.012 65.2289 195.166 64.9886 195.315 64.7484C195.475 64.5081 195.623 64.2911 195.76 64.0962H196.942ZM197.747 60.8355C197.587 61.0647 197.416 61.2927 197.233 61.522C197.062 61.7389 196.839 61.94 196.565 62.1226C196.337 62.271 196.091 62.3911 195.829 62.483C195.566 62.575 195.252 62.6203 194.887 62.6203C194.304 62.6203 193.876 62.5345 193.602 62.3629C193.339 62.1913 193.208 61.962 193.208 61.6764C193.208 61.4018 193.356 61.1787 193.653 61.0071C193.95 60.8355 194.31 60.7497 194.732 60.7497C194.915 60.7497 195.098 60.773 195.281 60.8183L195.246 60.9728C195.189 60.9618 195.109 60.9556 195.007 60.9556C194.744 60.9556 194.521 61.0243 194.338 61.1616C194.156 61.2878 194.064 61.4595 194.064 61.6764C194.064 61.8934 194.144 62.0711 194.304 62.2084C194.475 62.3457 194.698 62.4144 194.972 62.4144C195.292 62.4144 195.572 62.3739 195.812 62.2942C196.063 62.2146 196.286 62.1055 196.48 61.9682C196.708 61.8076 196.908 61.6311 197.079 61.4362C197.251 61.2302 197.416 61.001 197.576 60.7497L197.747 60.8355ZM216.768 65.6236C216.368 66.0588 215.968 66.4646 215.568 66.8421C215.169 67.2086 214.752 67.5457 214.318 67.8546C213.382 68.5068 212.32 69.0155 211.132 69.382C210.766 69.6456 210.39 69.8393 210.001 69.9655C209.613 70.0795 209.253 70.1372 208.922 70.1372C208.488 70.1372 208.14 70.006 207.877 69.7424C207.626 69.4678 207.5 69.0842 207.5 68.5926C207.5 68.2727 207.569 67.9466 207.706 67.6144C207.843 67.2822 208.008 66.9684 208.203 66.6705C208.408 66.3726 208.619 66.1041 208.836 65.8639C209.053 65.6236 209.242 65.4287 209.402 65.2804C209.916 64.8109 210.418 64.4738 210.909 64.2678C211.412 64.0619 211.828 63.9589 212.16 63.9589C212.251 63.9589 212.354 63.97 212.468 63.9933C212.582 64.0165 212.691 64.068 212.793 64.1477C212.896 64.2164 212.988 64.3193 213.068 64.4566C213.159 64.5829 213.216 64.7484 213.239 64.9543H213.29C213.599 64.1992 213.878 63.4098 214.13 62.586C214.381 61.7622 214.506 60.9152 214.506 60.0461C214.506 59.3829 214.375 58.9244 214.112 58.6731C213.907 58.4782 213.616 58.3814 213.239 58.3814C213.068 58.3814 212.879 58.4157 212.674 58.4843C212.468 58.553 212.268 58.6449 212.074 58.7589C211.846 58.9073 211.634 59.0507 211.44 59.188L211.355 59.0335C211.64 58.8043 211.931 58.6106 212.228 58.45C212.479 58.3238 212.725 58.2269 212.965 58.1583C213.216 58.0896 213.49 58.0553 213.787 58.0553C214.209 58.0553 214.541 58.1583 214.78 58.3642C215.169 58.6842 215.363 59.2848 215.363 60.1662C215.363 60.4408 215.34 60.7325 215.294 61.0414C215.26 61.3504 215.209 61.6654 215.14 61.9853C215.072 62.3053 214.992 62.6203 214.9 62.9292C214.809 63.2381 214.718 63.5299 214.626 63.8045C214.524 64.0901 214.404 64.4051 214.267 64.7484C214.13 65.0916 213.981 65.441 213.821 65.7952C213.661 66.1385 213.496 66.4756 213.324 66.8078C213.153 67.1277 212.982 67.4084 212.811 67.6487C212.639 67.9 212.445 68.1464 212.228 68.3867C212.023 68.6159 211.771 68.8562 211.474 69.1075C212 68.9358 212.485 68.736 212.93 68.5068C213.387 68.2665 213.827 67.9981 214.249 67.7002C214.661 67.4023 215.06 67.0762 215.449 66.722C215.848 66.3677 216.248 65.973 216.648 65.5378L216.768 65.6236ZM212.074 64.1649C211.8 64.1649 211.463 64.3022 211.063 64.5768C210.675 64.8513 210.304 65.2007 209.95 65.6236C209.516 66.1385 209.151 66.6987 208.854 67.3055C208.568 67.9 208.425 68.4492 208.425 68.953C208.425 69.3073 208.488 69.5598 208.614 69.7081C208.739 69.8564 208.905 69.9312 209.111 69.9312C209.442 69.9312 209.801 69.8172 210.19 69.588C210.578 69.3587 210.972 68.9983 211.372 68.5068C211.623 68.1868 211.846 67.8608 212.04 67.5286C212.234 67.1964 212.388 66.8826 212.502 66.5847C212.628 66.2868 212.719 66.0122 212.776 65.7609C212.845 65.4974 212.879 65.2804 212.879 65.1088C212.879 64.4799 212.611 64.1649 212.074 64.1649ZM227.469 65.6579C227.195 65.9669 226.886 66.2132 226.544 66.3959C226.201 66.5785 225.865 66.6705 225.533 66.6705C225.214 66.6705 224.939 66.6018 224.711 66.4645C224.482 66.3162 224.306 66.1446 224.18 65.9497H224.145C224.032 66.3849 223.82 66.8482 223.512 67.3398C223.203 67.8314 222.833 68.2837 222.398 68.6956C221.976 69.1074 221.507 69.4507 220.993 69.7253C220.48 69.9999 219.955 70.1372 219.418 70.1372C218.927 70.1372 218.556 69.9937 218.304 69.7081C218.053 69.4225 217.927 69.0388 217.927 68.5583C217.927 68.307 217.99 68.0152 218.116 67.683C218.241 67.3508 218.413 67.0198 218.63 66.6876C218.858 66.3444 219.121 66.0122 219.418 65.6923C219.726 65.3601 220.057 65.0683 220.411 64.817C220.765 64.5535 221.137 64.3475 221.525 64.1992C221.925 64.0386 222.324 63.9589 222.724 63.9589C223.192 63.9589 223.552 64.0962 223.803 64.3708C224.066 64.6454 224.208 64.9997 224.231 65.4348C224.254 65.6984 224.374 65.9436 224.591 66.1728C224.82 66.3898 225.128 66.4989 225.516 66.4989C225.858 66.4989 226.178 66.4131 226.475 66.2414C226.783 66.0698 227.068 65.8467 227.332 65.5721L227.469 65.6579ZM218.852 68.9702C218.852 69.268 218.91 69.5022 219.024 69.6738C219.138 69.8454 219.309 69.9312 219.538 69.9312C219.846 69.9312 220.148 69.8515 220.445 69.691C220.754 69.5193 221.045 69.3024 221.319 69.0388C221.604 68.7642 221.867 68.4553 222.107 68.1121C222.347 67.7688 222.552 67.4146 222.724 67.048C222.906 66.6815 223.049 66.3273 223.152 65.984C223.255 65.6297 223.306 65.3086 223.306 65.023C223.306 64.7827 223.244 64.5829 223.118 64.4223C223.004 64.2507 222.82 64.1649 222.569 64.1649C222.33 64.1649 222.073 64.2446 221.799 64.4051C221.525 64.5535 221.244 64.7545 220.959 65.0058C220.685 65.2571 220.422 65.5488 220.171 65.881C219.92 66.2132 219.692 66.5565 219.486 66.9108C219.292 67.265 219.138 67.6205 219.024 67.9748C218.91 68.329 218.852 68.6613 218.852 68.9702ZM239.14 64.0962C238.763 64.6111 238.421 65.0855 238.112 65.5207C237.804 65.9436 237.519 66.3334 237.256 66.6876C236.719 67.4317 236.337 68.0152 236.108 68.4381C235.892 68.8611 235.783 69.1871 235.783 69.4164C235.783 69.7596 235.954 69.9312 236.297 69.9312C236.513 69.9312 236.845 69.8001 237.29 69.5365C237.735 69.2619 238.284 68.7814 238.935 68.0949C239.254 67.7517 239.597 67.3631 239.962 66.9279C240.328 66.4927 240.705 66.0073 241.093 65.4692L241.264 65.5207C240.476 66.619 239.746 67.5175 239.072 68.215C238.684 68.6159 238.341 68.942 238.044 69.1933C237.746 69.4446 237.479 69.6395 237.239 69.7768C236.999 69.9141 236.782 70.006 236.588 70.0513C236.393 70.109 236.211 70.1372 236.04 70.1372C235.742 70.1372 235.502 70.0452 235.32 69.8626C235.138 69.6677 235.046 69.4225 235.046 69.1246C235.046 68.964 235.069 68.8096 235.115 68.6612C235.16 68.5007 235.246 68.307 235.372 68.0777L235.337 68.0606C235.109 68.3119 234.881 68.5521 234.652 68.7814C234.423 68.9983 234.19 69.1994 233.95 69.382C233.652 69.6113 233.356 69.7939 233.059 69.9312C232.762 70.0685 232.466 70.1372 232.168 70.1372C231.894 70.1372 231.665 70.0513 231.483 69.8797C231.301 69.7081 231.209 69.4617 231.209 69.1418C231.209 68.9812 231.243 68.8157 231.312 68.6441C231.391 68.4614 231.483 68.2947 231.586 68.1464L231.552 68.1292C231.254 68.4614 230.98 68.7532 230.729 69.0045C230.479 69.2558 230.239 69.4678 230.01 69.6395C229.781 69.8 229.558 69.9202 229.342 69.9999C229.125 70.0918 228.907 70.1372 228.691 70.1372C228.291 70.1372 227.982 70.017 227.766 69.7768C227.652 69.6505 227.566 69.5022 227.509 69.3306C227.451 69.1589 227.423 68.9763 227.423 68.7814C227.423 68.4725 227.509 68.204 227.68 67.9748C227.852 67.7455 228.063 67.6315 228.314 67.6315C228.509 67.6315 228.651 67.6892 228.742 67.8032C228.845 67.9061 228.896 68.0324 228.896 68.1807C228.896 68.5472 228.714 68.7299 228.348 68.7299C228.269 68.7299 228.194 68.7127 228.126 68.6784C228.046 68.633 227.995 68.5693 227.971 68.4896C227.88 68.5816 227.823 68.6723 227.8 68.7642C227.777 68.8561 227.766 68.9358 227.766 69.0045C227.766 69.1075 227.789 69.2215 227.834 69.3477C227.869 69.4617 227.926 69.5647 228.006 69.6566C228.177 69.8393 228.4 69.9312 228.674 69.9312C229.199 69.9312 229.77 69.6395 230.387 69.056C231.014 68.4725 231.757 67.5972 232.614 66.4302C232.877 66.087 233.139 65.7327 233.402 65.3662C233.665 64.9886 233.95 64.5829 234.258 64.1477L235.423 64.0962C234.978 64.703 234.584 65.2289 234.241 65.6751C233.909 66.1213 233.618 66.5222 233.367 66.8764C233.104 67.254 232.882 67.5739 232.699 67.8375C232.528 68.101 232.391 68.329 232.288 68.5239C232.185 68.7066 232.111 68.8672 232.066 69.0045C232.02 69.1418 231.997 69.268 231.997 69.382C231.997 69.5426 232.042 69.6628 232.134 69.7424C232.237 69.8221 232.357 69.8626 232.494 69.8626C232.723 69.8626 232.967 69.7939 233.23 69.6566C233.493 69.5193 233.778 69.3195 234.087 69.056C234.35 68.8267 234.624 68.5644 234.909 68.2665C235.194 67.9576 235.491 67.6205 235.8 67.254C236.166 66.8188 236.525 66.3334 236.879 65.7952C237.233 65.2461 237.592 64.6797 237.958 64.0962H239.14Z" fill="#C56446"/>
</svg>
